<svg xmlns="http://www.w3.org/2000/svg" xmlns:xlink="http://www.w3.org/1999/xlink" width="500" zoomAndPan="magnify" viewBox="0 0 375 374.999991" height="500" preserveAspectRatio="xMidYMid meet" version="1.0"><defs><clipPath id="id1"><path d="M 6.742188 13.746094 L 239 13.746094 L 239 308 L 6.742188 308 Z M 6.742188 13.746094 " clip-rule="nonzero"/></clipPath></defs><path fill="#80cc28" d="M 315.371094 298.773438 C 368.054688 229.046875 306.355469 85.839844 306.355469 85.839844 C 306.355469 85.839844 263.460938 152.40625 216.414062 171.007812 C 184.976562 183.421875 102.601562 241.445312 188.480469 322.917969 C 189.390625 323.789062 190.359375 324.667969 191.367188 325.527344 C 232.914062 304.191406 313.0625 244.121094 305 100.355469 C 305 100.355469 333.640625 264.097656 196.886719 329.941406 C 222.761719 349.054688 268.320312 361.054688 315.371094 298.773438 " fill-opacity="1" fill-rule="nonzero"/><g clip-path="url(#id1)"><path fill="#27963c" d="M 170.417969 184.636719 C 150.128906 131.4375 107.460938 72.800781 21.597656 25.085938 C 21.597656 25.085938 135.003906 71.738281 179.214844 178.609375 C 186.011719 174.335938 192.394531 171.144531 197.460938 169.144531 C 212.015625 163.390625 226.152344 153.054688 238.765625 141.511719 C 193.726562 43.328125 6.933594 13.789062 6.933594 13.789062 C 6.933594 13.789062 49.332031 104.914062 37.417969 167.96875 C 29.957031 207.390625 35.148438 321.75 155.300781 306.015625 C 108.835938 250.480469 139.800781 207.40625 170.417969 184.636719 " fill-opacity="1" fill-rule="nonzero"/></g></svg>